<svg xmlns="http://www.w3.org/2000/svg" viewBox="0 0 900 650" role="img" aria-labelledby="title desc">
  <title id="title">HTML Beginner Lab</title>
  <desc id="desc">Ilustrasi alur HTML dari dokumen, tag, struktur body, sampai tampilan browser.</desc>
  <defs>
    <linearGradient id="panel" x1="0" y1="0" x2="1" y2="1">
      <stop offset="0" stop-color="#ffffff"/>
      <stop offset="1" stop-color="#f3f7ff"/>
    </linearGradient>
    <linearGradient id="screen" x1="0" y1="0" x2="1" y2="1">
      <stop offset="0" stop-color="#17213a"/>
      <stop offset="1" stop-color="#111827"/>
    </linearGradient>
    <linearGradient id="accent" x1="0" y1="0" x2="1" y2="1">
      <stop offset="0" stop-color="#f97316"/>
      <stop offset="1" stop-color="#f59e0b"/>
    </linearGradient>
    <filter id="shadow" x="-20%" y="-20%" width="140%" height="140%">
      <feDropShadow dx="0" dy="18" stdDeviation="22" flood-color="#1f2a54" flood-opacity=".18"/>
    </filter>
  </defs>

  <rect width="900" height="650" rx="34" fill="#f8faff"/>
  <path d="M82 104h736a36 36 0 0 1 36 36v372a36 36 0 0 1-36 36H82a36 36 0 0 1-36-36V140a36 36 0 0 1 36-36Z" fill="url(#panel)" filter="url(#shadow)"/>

  <rect x="86" y="148" width="492" height="342" rx="24" fill="url(#screen)"/>
  <rect x="118" y="183" width="124" height="14" rx="7" fill="#f97316"/>
  <rect x="118" y="221" width="392" height="12" rx="6" fill="#fb923c" opacity=".88"/>
  <rect x="148" y="253" width="314" height="12" rx="6" fill="#fed7aa" opacity=".72"/>
  <rect x="148" y="285" width="360" height="12" rx="6" fill="#fed7aa" opacity=".78"/>
  <rect x="118" y="336" width="142" height="12" rx="6" fill="#fbbf24" opacity=".9"/>
  <rect x="284" y="336" width="204" height="12" rx="6" fill="#fdba74" opacity=".86"/>
  <rect x="148" y="370" width="330" height="12" rx="6" fill="#e5e7eb" opacity=".6"/>
  <rect x="148" y="404" width="250" height="12" rx="6" fill="#fdba74" opacity=".72"/>
  <text x="118" y="457" fill="#94a3b8" font-family="JetBrains Mono, Consolas, monospace" font-size="16" font-weight="700">&lt;/html&gt;</text>

  <g transform="translate(610 150)">
    <rect width="202" height="72" rx="18" fill="#fff" stroke="#e3e8f3" stroke-width="2"/>
    <circle cx="38" cy="36" r="18" fill="#fff4ed"/>
    <path d="M33 27 24 36l9 9M43 27l9 9-9 9" fill="none" stroke="#f97316" stroke-linecap="round" stroke-linejoin="round" stroke-width="4"/>
    <text x="72" y="32" fill="#17213a" font-family="Inter, Arial, sans-serif" font-size="18" font-weight="800">Document</text>
    <text x="72" y="53" fill="#647089" font-family="Inter, Arial, sans-serif" font-size="13">index.html</text>
  </g>

  <g transform="translate(610 264)">
    <rect width="202" height="72" rx="18" fill="#fff" stroke="#e3e8f3" stroke-width="2"/>
    <circle cx="38" cy="36" r="18" fill="#fff7ed"/>
    <path d="M29 30h18M29 39h26M29 48h14" fill="none" stroke="#f59e0b" stroke-linecap="round" stroke-width="4"/>
    <text x="72" y="32" fill="#17213a" font-family="Inter, Arial, sans-serif" font-size="18" font-weight="800">Structure</text>
    <text x="72" y="53" fill="#647089" font-family="Inter, Arial, sans-serif" font-size="13">head + body</text>
  </g>

  <g transform="translate(610 378)">
    <rect width="202" height="72" rx="18" fill="#fff" stroke="#e3e8f3" stroke-width="2"/>
    <circle cx="38" cy="36" r="18" fill="#fff4ed"/>
    <path d="M27 31h22M27 40h16M49 29l7 7-7 7" fill="none" stroke="#f97316" stroke-linecap="round" stroke-linejoin="round" stroke-width="4"/>
    <text x="72" y="32" fill="#17213a" font-family="Inter, Arial, sans-serif" font-size="18" font-weight="800">Browser</text>
    <text x="72" y="53" fill="#647089" font-family="Inter, Arial, sans-serif" font-size="13">visual output</text>
  </g>

  <path d="M711 222v36M711 336v36" fill="none" stroke="url(#accent)" stroke-linecap="round" stroke-width="6"/>
  <path d="M596 320c-58 0-58-80-12-92" fill="none" stroke="#f59e0b" stroke-linecap="round" stroke-width="5" opacity=".75"/>

  <g transform="translate(170 520)">
    <rect width="560" height="34" rx="17" fill="#17213a" opacity=".12"/>
    <rect x="80" y="-12" width="400" height="30" rx="15" fill="#fff" stroke="#e3e8f3"/>
    <text x="280" y="8" text-anchor="middle" fill="#647089" font-family="Inter, Arial, sans-serif" font-size="13" font-weight="700">doctype -> html -> head/body -> browser output</text>
  </g>

  <g transform="translate(418 66)">
    <rect x="-72" y="-28" width="144" height="56" rx="18" fill="url(#accent)"/>
    <text y="8" text-anchor="middle" fill="#fff" font-family="Inter, Arial, sans-serif" font-size="20" font-weight="800">HTML Lab</text>
  </g>
</svg>
